<svg xmlns="http://www.w3.org/2000/svg" xmlns:xlink="http://www.w3.org/1999/xlink" width="1920" zoomAndPan="magnify" viewBox="0 0 1440 809.999993" height="1080" preserveAspectRatio="xMidYMid meet" version="1.0"><defs><g/></defs><g fill="#4d3301" fill-opacity="1"><g transform="translate(527.475268, 449.856036)"><g><path d="M 44.484375 0.984375 C 37.265625 0.984375 30.789062 -0.1875 25.0625 -2.53125 C 19.332031 -4.875 14.753906 -8.347656 11.328125 -12.953125 C 7.898438 -17.554688 6.09375 -23.09375 5.90625 -29.5625 L 31.53125 -29.5625 C 31.914062 -25.90625 33.1875 -23.113281 35.34375 -21.1875 C 37.5 -19.257812 40.3125 -18.296875 43.78125 -18.296875 C 47.351562 -18.296875 50.171875 -19.117188 52.234375 -20.765625 C 54.296875 -22.410156 55.328125 -24.6875 55.328125 -27.59375 C 55.328125 -30.03125 54.503906 -32.046875 52.859375 -33.640625 C 51.222656 -35.242188 49.207031 -36.5625 46.8125 -37.59375 C 44.414062 -38.625 41.015625 -39.796875 36.609375 -41.109375 C 30.222656 -43.078125 25.007812 -45.046875 20.96875 -47.015625 C 16.9375 -48.992188 13.460938 -51.90625 10.546875 -55.75 C 7.640625 -59.601562 6.1875 -64.628906 6.1875 -70.828125 C 6.1875 -80.023438 9.519531 -87.226562 16.1875 -92.4375 C 22.851562 -97.644531 31.535156 -100.25 42.234375 -100.25 C 53.128906 -100.25 61.90625 -97.644531 68.5625 -92.4375 C 75.226562 -87.226562 78.796875 -79.976562 79.265625 -70.6875 L 53.21875 -70.6875 C 53.03125 -73.875 51.859375 -76.378906 49.703125 -78.203125 C 47.546875 -80.035156 44.773438 -80.953125 41.390625 -80.953125 C 38.484375 -80.953125 36.132812 -80.175781 34.34375 -78.625 C 32.5625 -77.082031 31.671875 -74.859375 31.671875 -71.953125 C 31.671875 -68.753906 33.171875 -66.265625 36.171875 -64.484375 C 39.179688 -62.703125 43.878906 -60.78125 50.265625 -58.71875 C 56.648438 -56.550781 61.835938 -54.484375 65.828125 -52.515625 C 69.816406 -50.546875 73.265625 -47.679688 76.171875 -43.921875 C 79.078125 -40.171875 80.53125 -35.335938 80.53125 -29.421875 C 80.53125 -23.796875 79.097656 -18.679688 76.234375 -14.078125 C 73.378906 -9.484375 69.226562 -5.820312 63.78125 -3.09375 C 58.332031 -0.375 51.898438 0.984375 44.484375 0.984375 Z M 44.484375 0.984375 "/></g></g></g><g fill="#4d3301" fill-opacity="1"><g transform="translate(614.061503, 449.856036)"><g><path d="M 3.9375 -39.28125 C 3.9375 -47.445312 5.601562 -54.578125 8.9375 -60.671875 C 12.269531 -66.773438 16.914062 -71.46875 22.875 -74.75 C 28.832031 -78.039062 35.660156 -79.6875 43.359375 -79.6875 C 53.222656 -79.6875 61.460938 -77.101562 68.078125 -71.9375 C 74.691406 -66.78125 79.03125 -59.507812 81.09375 -50.125 L 55.46875 -50.125 C 53.3125 -56.132812 49.132812 -59.140625 42.9375 -59.140625 C 38.53125 -59.140625 35.007812 -57.425781 32.375 -54 C 29.75 -50.570312 28.4375 -45.664062 28.4375 -39.28125 C 28.4375 -32.894531 29.75 -27.988281 32.375 -24.5625 C 35.007812 -21.144531 38.53125 -19.4375 42.9375 -19.4375 C 49.132812 -19.4375 53.3125 -22.4375 55.46875 -28.4375 L 81.09375 -28.4375 C 79.03125 -19.238281 74.664062 -12.007812 68 -6.75 C 61.34375 -1.5 53.128906 1.125 43.359375 1.125 C 35.660156 1.125 28.832031 -0.515625 22.875 -3.796875 C 16.914062 -7.085938 12.269531 -11.78125 8.9375 -17.875 C 5.601562 -23.976562 3.9375 -31.113281 3.9375 -39.28125 Z M 3.9375 -39.28125 "/></g></g></g><g fill="#4d3301" fill-opacity="1"><g transform="translate(699.239825, 449.856036)"><g><path d="M 44.484375 1.125 C 36.796875 1.125 29.875 -0.515625 23.71875 -3.796875 C 17.570312 -7.085938 12.738281 -11.78125 9.21875 -17.875 C 5.695312 -23.976562 3.9375 -31.113281 3.9375 -39.28125 C 3.9375 -47.351562 5.71875 -54.460938 9.28125 -60.609375 C 12.851562 -66.753906 17.738281 -71.46875 23.9375 -74.75 C 30.132812 -78.039062 37.078125 -79.6875 44.765625 -79.6875 C 52.460938 -79.6875 59.410156 -78.039062 65.609375 -74.75 C 71.804688 -71.46875 76.6875 -66.753906 80.25 -60.609375 C 83.820312 -54.460938 85.609375 -47.351562 85.609375 -39.28125 C 85.609375 -31.207031 83.800781 -24.097656 80.1875 -17.953125 C 76.570312 -11.804688 71.640625 -7.085938 65.390625 -3.796875 C 59.148438 -0.515625 52.179688 1.125 44.484375 1.125 Z M 44.484375 -19.71875 C 49.085938 -19.71875 53.007812 -21.40625 56.25 -24.78125 C 59.488281 -28.15625 61.109375 -32.988281 61.109375 -39.28125 C 61.109375 -45.570312 59.535156 -50.40625 56.390625 -53.78125 C 53.242188 -57.164062 49.367188 -58.859375 44.765625 -58.859375 C 40.078125 -58.859375 36.179688 -57.191406 33.078125 -53.859375 C 29.984375 -50.523438 28.4375 -45.664062 28.4375 -39.28125 C 28.4375 -32.988281 29.960938 -28.15625 33.015625 -24.78125 C 36.066406 -21.40625 39.890625 -19.71875 44.484375 -19.71875 Z M 44.484375 -19.71875 "/></g></g></g><g fill="#4d3301" fill-opacity="1"><g transform="translate(788.923462, 449.856036)"><g><path d="M 32.8125 -65.46875 C 35.625 -69.789062 39.140625 -73.191406 43.359375 -75.671875 C 47.585938 -78.160156 52.28125 -79.40625 57.4375 -79.40625 L 57.4375 -53.921875 L 50.828125 -53.921875 C 44.816406 -53.921875 40.3125 -52.628906 37.3125 -50.046875 C 34.3125 -47.472656 32.8125 -42.945312 32.8125 -36.46875 L 32.8125 0 L 8.734375 0 L 8.734375 -78.5625 L 32.8125 -78.5625 Z M 32.8125 -65.46875 "/></g></g></g><g fill="#4d3301" fill-opacity="1"><g transform="translate(849.181837, 449.856036)"><g><path d="M 82.78125 -40.546875 C 82.78125 -38.296875 82.640625 -35.953125 82.359375 -33.515625 L 27.875 -33.515625 C 28.25 -28.628906 29.820312 -24.894531 32.59375 -22.3125 C 35.363281 -19.726562 38.765625 -18.4375 42.796875 -18.4375 C 48.804688 -18.4375 52.984375 -20.972656 55.328125 -26.046875 L 80.953125 -26.046875 C 79.640625 -20.878906 77.269531 -16.226562 73.84375 -12.09375 C 70.414062 -7.96875 66.117188 -4.734375 60.953125 -2.390625 C 55.796875 -0.046875 50.023438 1.125 43.640625 1.125 C 35.953125 1.125 29.101562 -0.515625 23.09375 -3.796875 C 17.082031 -7.085938 12.382812 -11.78125 9 -17.875 C 5.625 -23.976562 3.9375 -31.113281 3.9375 -39.28125 C 3.9375 -47.445312 5.601562 -54.578125 8.9375 -60.671875 C 12.269531 -66.773438 16.9375 -71.46875 22.9375 -74.75 C 28.945312 -78.039062 35.847656 -79.6875 43.640625 -79.6875 C 51.242188 -79.6875 58.003906 -78.085938 63.921875 -74.890625 C 69.835938 -71.703125 74.457031 -67.148438 77.78125 -61.234375 C 81.113281 -55.328125 82.78125 -48.429688 82.78125 -40.546875 Z M 58.15625 -46.890625 C 58.15625 -51.015625 56.742188 -54.296875 53.921875 -56.734375 C 51.109375 -59.179688 47.585938 -60.40625 43.359375 -60.40625 C 39.328125 -60.40625 35.925781 -59.226562 33.15625 -56.875 C 30.382812 -54.53125 28.671875 -51.203125 28.015625 -46.890625 Z M 58.15625 -46.890625 "/></g></g></g><path stroke-linecap="butt" transform="matrix(0.75, 0, 0, 0.75, 416.109945, 385.086358)" fill="none" stroke-linejoin="miter" d="M -0.000760384 2.499439 L 120.301329 2.499439 " stroke="#885a01" stroke-width="5" stroke-opacity="1" stroke-miterlimit="4"/><path stroke-linecap="butt" transform="matrix(0.63001, 0.406924, -0.406924, 0.63001, 435.403952, 303.656196)" fill="none" stroke-linejoin="miter" d="M -0.000459515 2.499102 L 120.30274 2.497336 " stroke="#885a01" stroke-width="5" stroke-opacity="1" stroke-miterlimit="4"/><path stroke-linecap="butt" transform="matrix(0.570413, 1.329863, -1.329863, 0.570413, 503.392181, 255.399617)" fill="none" stroke-linejoin="miter" d="M -0.00035358 1.998404 L 62.353083 1.999011 " stroke="#885a01" stroke-width="4" stroke-opacity="1" stroke-miterlimit="4"/><path stroke-linecap="butt" transform="matrix(0, 1.447034, -1.447034, 0, 578.238073, 239.105766)" fill="none" stroke-linejoin="miter" d="M -0.000205124 2.000177 L 62.352563 2.000177 " stroke="#885a01" stroke-width="4" stroke-opacity="1" stroke-miterlimit="4"/></svg>